<svg xmlns="http://www.w3.org/2000/svg" xmlns:xlink="http://www.w3.org/1999/xlink"><symbol viewBox="0 0 213.8 202.8" id="ticket"><title>Artboard 1 copy 3</title><path d="M211.8 94.8c-4.8-2.7-6.5-8.8-3.8-13.6 1.1-1.9.4-4.4-1.5-5.4L74.5.5C72.5-.6 70.1.1 69 2c-2.7 4.8-8.8 6.5-13.6 3.8-1.9-1.1-4.4-.4-5.4 1.5l-26.3 46c-1.1 1.9-.4 4.4 1.5 5.4 4.8 2.7 6.4 8.8 3.7 13.6-1.1 1.9-.4 4.4 1.5 5.4L162.5 153c1.9 1.1 4.4.4 5.5-1.5 2.7-4.8 8.8-6.5 13.6-3.8 1.9 1.1 4.4.4 5.5-1.5l26.2-46.1c1.1-1.8.4-4.2-1.5-5.3zm-29.9 44.5c-6.6-2-13.8 0-18.5 5.1l-31.7-18c.6-1 .2-2.2-.7-2.7-1-.6-2.2-.2-2.7.7L37.5 72.7c2-6.6 0-13.8-5.1-18.5l22.7-39.9c6.6 2 13.8 0 18.5-5.1l125.9 71.7c-2 6.6 0 13.8 5.1 18.5l-22.7 39.9z"/><path d="M136.5 114c-1-.5-2.2-.2-2.7.7l-.5.9c-.6 1-.2 2.2.7 2.7 1 .6 2.2.2 2.7-.7l.5-.9c.6-.9.2-2.1-.7-2.7zM141.9 104.5c-1-.5-2.2-.2-2.7.7l-.5.9c-.6 1-.2 2.2.7 2.7 1 .6 2.2.2 2.7-.7l.5-.9c.6-.9.3-2.2-.7-2.7zM155.7 80.1c1 .5 2.2.2 2.7-.7l.5-.9c.6-1 .2-2.2-.7-2.7-1-.6-2.2-.2-2.7.7l-.5.9c-.6.9-.2 2.2.7 2.7zM147.3 94.9c-1-.5-2.2-.2-2.7.7l-.5.9c-.6 1-.2 2.2.7 2.7 1 .6 2.2.2 2.7-.7l.5-.9c.6-.9.3-2.1-.7-2.7zM161.2 70.6c1 .5 2.2.2 2.7-.7l.5-.9c.6-1 .2-2.2-.7-2.7-1-.6-2.2-.2-2.7.7l-.5.9c-.6.9-.3 2.1.7 2.7zM153 88.9l.5-.9c.6-1 .2-2.2-.7-2.7-1-.6-2.2-.2-2.7.7l-.5.9c-.6 1-.2 2.2.7 2.7.9.6 2.2.3 2.7-.7zM146 68.9L75.4 28.7c-1.2-.7-2.7-.3-3.4.9L54.2 60.9c-.7 1.2-.3 2.7.9 3.4l70.6 40.1c1.2.7 2.7.3 3.4-.9l17.7-31.1c.8-1.3.4-2.8-.8-3.5zm-19.9 30L59.8 61.2l15.3-26.9L141.3 72l-15.2 26.9zM176.7 81.7c-1.9-1.1-4.4-.4-5.5 1.5L151 118.8c-1.1 1.9-.4 4.4 1.5 5.5s4.4.4 5.5-1.5l20.3-35.6c1.1-1.9.4-4.4-1.6-5.5zM183.8 99.6c-1.2-.7-2.7-.3-3.4.9l-9.9 17.3c-.7 1.2-.3 2.7.9 3.4s2.7.3 3.4-.9l9.9-17.3c.7-1.2.3-2.7-.9-3.4zM186.2 150.4c-2.2.1-3.9 2-3.8 4.2l.8 15c-6.6 2-11.6 7.6-12.6 14.5l-36.4 2.6v-.2l-.1-1c-.1-1.1-1.1-1.9-2.2-1.8s-1.9 1.1-1.8 2.2l.1 1v.1L26 194.5c-2-6.6-7.7-11.5-14.5-12.5l-3.3-45.8c6.6-2 11.5-7.7 12.6-14.5l54.6-4.2c2.2-.2 3.9-2.1 3.7-4.3s-2.1-3.9-4.3-3.7L16.6 114c-2.2.2-3.8 2.1-3.7 4.3.4 5.5-3.8 10.3-9.3 10.7-2.2.2-3.9 2.1-3.7 4.3l3.8 52.9c.2 2.2 2.1 3.9 4.3 3.7 5.5-.4 10.3 3.8 10.7 9.3.2 2.1 1.9 3.7 4 3.7h.3L174.6 192c2.2-.2 3.9-2.1 3.7-4.3-.4-5.5 3.8-10.3 9.3-10.7 2.2-.2 3.8-2 3.7-4.2l-.9-18.5c-.1-2.3-1.9-4-4.2-3.9z"/><path d="M129.2 175l.1 1c.1 1 1 1.8 2 1.8h.2c1.1-.1 1.9-1 1.8-2.1l-.1-1c-.1-1.1-1.1-1.9-2.2-1.8s-1.9 1-1.8 2.1zM128.4 140c-1.1.1-1.9 1-1.8 2.1l.1 1c.1 1 1 1.8 2 1.8h.2c1.1-.1 1.9-1 1.8-2.1l-.1-1c-.1-1.1-1.1-1.9-2.2-1.8zM130.2 161.9c-1.1.1-1.9 1-1.8 2.1l.1 1c.1 1 1 1.8 2 1.8h.2c1.1-.1 1.9-1 1.8-2.1l-.1-1c-.2-1.1-1.1-1.9-2.2-1.8zM129.3 150.9c-1.1.1-1.9 1-1.8 2.1l.1 1c.1 1 1 1.8 2 1.8h.2c1.1-.1 1.9-1 1.8-2.1l-.1-1c-.1-1-1.1-1.9-2.2-1.8zM31.4 137.8c-.4.5-.6 1.2-.6 1.8l2.6 35.8c.1 1.3 1.2 2.3 2.5 2.3h.1l81-5.8c1.4-.1 2.4-1.3 2.3-2.7l-2.6-35.8c-.1-1.4-1.3-2.4-2.7-2.3l-81 5.8c-.6.1-1.2.4-1.6.9zm80.6-1.5l2.2 30.8-76 5.5-2.3-30.8 76.1-5.5zM150 173.6h.3c2.2-.1 3.9-2 3.7-4.3l-1-14.6c-.1-2.2-2.1-3.9-4.3-3.7s-3.9 2.1-3.7 4.3l1 14.6c.1 2.1 1.9 3.7 4 3.7z"/></symbol></svg>