<?xml version="1.0" encoding="utf-8"?>
<!-- Generator: Adobe Illustrator 20.0.0, SVG Export Plug-In . SVG Version: 6.00 Build 0)  -->
<svg version="1.1" id="Layer_1" xmlns="http://www.w3.org/2000/svg" xmlns:xlink="http://www.w3.org/1999/xlink" x="0px" y="0px"
	 viewBox="0 0 213.8 202.8" style="enable-background:new 0 0 213.8 202.8;" xml:space="preserve">
<title>Artboard 1 copy 3</title>
<g>
	<path d="M211.8,94.8c-4.8-2.7-6.5-8.8-3.8-13.6c0,0,0,0,0,0c1.1-1.9,0.4-4.4-1.5-5.4L74.5,0.5C72.5-0.6,70.1,0.1,69,2
		c-2.7,4.8-8.8,6.5-13.6,3.8c0,0,0,0,0,0c-1.9-1.1-4.4-0.4-5.4,1.5L23.7,53.3c-1.1,1.9-0.4,4.4,1.5,5.4c4.8,2.7,6.4,8.8,3.7,13.6
		c-1.1,1.9-0.4,4.4,1.5,5.4L162.5,153c1.9,1.1,4.4,0.4,5.5-1.5c2.7-4.8,8.8-6.5,13.6-3.8c0,0,0,0,0,0c1.9,1.1,4.4,0.4,5.5-1.5
		l26.2-46.1C214.4,98.3,213.7,95.9,211.8,94.8z M181.9,139.3c-6.6-2-13.8,0-18.5,5.1l-31.7-18l0,0c0.6-1,0.2-2.2-0.7-2.7
		c-1-0.6-2.2-0.2-2.7,0.7L37.5,72.7c2-6.6,0-13.8-5.1-18.5l22.7-39.9c6.6,2,13.8,0,18.5-5.1l125.9,71.7c-2,6.6,0,13.8,5.1,18.5
		L181.9,139.3z"/>
	<path d="M136.5,114c-1-0.5-2.2-0.2-2.7,0.7c0,0,0,0,0,0l-0.5,0.9c-0.6,1-0.2,2.2,0.7,2.7c1,0.6,2.2,0.2,2.7-0.7l0.5-0.9
		C137.8,115.8,137.4,114.6,136.5,114C136.5,114,136.5,114,136.5,114z"/>
	<path d="M141.9,104.5c-1-0.5-2.2-0.2-2.7,0.7c0,0,0,0,0,0l-0.5,0.9c-0.6,1-0.2,2.2,0.7,2.7c1,0.6,2.2,0.2,2.7-0.7l0.5-0.9
		C143.2,106.3,142.9,105,141.9,104.5C141.9,104.5,141.9,104.5,141.9,104.5z"/>
	<path d="M155.7,80.1c1,0.5,2.2,0.2,2.7-0.7c0,0,0,0,0,0l0.5-0.9c0.6-1,0.2-2.2-0.7-2.7c-1-0.6-2.2-0.2-2.7,0.7l0,0l-0.5,0.9
		C154.4,78.3,154.8,79.6,155.7,80.1C155.7,80.1,155.7,80.1,155.7,80.1z"/>
	<path d="M147.3,94.9c-1-0.5-2.2-0.2-2.7,0.7c0,0,0,0,0,0l-0.5,0.9c-0.6,1-0.2,2.2,0.7,2.7c1,0.6,2.2,0.2,2.7-0.7l0.5-0.9
		C148.6,96.7,148.3,95.5,147.3,94.9C147.3,94.9,147.3,94.9,147.3,94.9z"/>
	<path d="M161.2,70.6c1,0.5,2.2,0.2,2.7-0.7c0,0,0,0,0,0l0.5-0.9c0.6-1,0.2-2.2-0.7-2.7c-1-0.6-2.2-0.2-2.7,0.7l-0.5,0.9
		C159.9,68.8,160.2,70,161.2,70.6C161.2,70.6,161.2,70.6,161.2,70.6z"/>
	<path d="M153,88.9l0.5-0.9c0.6-1,0.2-2.2-0.7-2.7c-1-0.6-2.2-0.2-2.7,0.7l0,0l-0.5,0.9c-0.6,1-0.2,2.2,0.7,2.7
		C151.2,90.2,152.5,89.9,153,88.9z"/>
	<path d="M146,68.9L75.4,28.7c-1.2-0.7-2.7-0.3-3.4,0.9c0,0,0,0,0,0L54.2,60.9c-0.7,1.2-0.3,2.7,0.9,3.4c0,0,0,0,0,0l70.6,40.1
		c1.2,0.7,2.7,0.3,3.4-0.9c0,0,0,0,0,0l17.7-31.1C147.6,71.1,147.2,69.6,146,68.9z M126.1,98.9L59.8,61.2l15.3-26.9l66.2,37.7
		L126.1,98.9z"/>
	<path d="M176.7,81.7c-1.9-1.1-4.4-0.4-5.5,1.5L151,118.8c-1.1,1.9-0.4,4.4,1.5,5.5s4.4,0.4,5.5-1.5l20.3-35.6
		C179.4,85.3,178.7,82.8,176.7,81.7C176.7,81.7,176.7,81.7,176.7,81.7z"/>
	<path d="M183.8,99.6c-1.2-0.7-2.7-0.3-3.4,0.9c0,0,0,0,0,0l-9.9,17.3c-0.7,1.2-0.3,2.7,0.9,3.4s2.7,0.3,3.4-0.9l9.9-17.3
		C185.4,101.8,185,100.3,183.8,99.6C183.8,99.6,183.8,99.6,183.8,99.6z"/>
	<path d="M186.2,150.4c-2.2,0.1-3.9,2-3.8,4.2l0.8,15c-6.6,2-11.6,7.6-12.6,14.5l-36.4,2.6c0,0,0-0.1,0-0.2l-0.1-1
		c-0.1-1.1-1.1-1.9-2.2-1.8s-1.9,1.1-1.8,2.2l0.1,1c0,0,0,0.1,0,0.1L26,194.5c-2-6.6-7.7-11.5-14.5-12.5l-3.3-45.8
		c6.6-2,11.5-7.7,12.6-14.5l54.6-4.2c2.2-0.2,3.9-2.1,3.7-4.3s-2.1-3.9-4.3-3.7L16.6,114c-2.2,0.2-3.8,2.1-3.7,4.3
		c0.4,5.5-3.8,10.3-9.3,10.7c0,0,0,0,0,0c-2.2,0.2-3.9,2.1-3.7,4.3c0,0,0,0,0,0l3.8,52.9c0.2,2.2,2.1,3.9,4.3,3.7c0,0,0,0,0,0
		c5.5-0.4,10.3,3.8,10.7,9.3c0,0,0,0,0,0c0.2,2.1,1.9,3.7,4,3.7h0.3l151.6-10.9c2.2-0.2,3.9-2.1,3.7-4.3c0,0,0,0,0,0
		c-0.4-5.5,3.8-10.3,9.3-10.7c0,0,0,0,0,0c2.2-0.2,3.8-2,3.7-4.2l-0.9-18.5C190.3,152,188.5,150.3,186.2,150.4
		C186.2,150.4,186.2,150.4,186.2,150.4z"/>
	<path d="M129.2,175l0.1,1c0.1,1,1,1.8,2,1.8h0.2c1.1-0.1,1.9-1,1.8-2.1c0,0,0,0,0,0l-0.1-1c-0.1-1.1-1.1-1.9-2.2-1.8
		S129.1,173.9,129.2,175L129.2,175z"/>
	<path d="M128.4,140c-1.1,0.1-1.9,1-1.8,2.1c0,0,0,0,0,0l0.1,1c0.1,1,1,1.8,2,1.8h0.2c1.1-0.1,1.9-1,1.8-2.1c0,0,0,0,0,0l-0.1-1
		C130.5,140.7,129.5,139.9,128.4,140C128.4,140,128.4,140,128.4,140z"/>
	<path d="M130.2,161.9c-1.1,0.1-1.9,1-1.8,2.1c0,0,0,0,0,0l0.1,1c0.1,1,1,1.8,2,1.8h0.2c1.1-0.1,1.9-1,1.8-2.1c0,0,0,0,0,0l-0.1-1
		C132.2,162.6,131.3,161.8,130.2,161.9C130.2,161.9,130.2,161.9,130.2,161.9z"/>
	<path d="M129.3,150.9c-1.1,0.1-1.9,1-1.8,2.1c0,0,0,0,0,0l0.1,1c0.1,1,1,1.8,2,1.8h0.2c1.1-0.1,1.9-1,1.8-2.1c0,0,0,0,0,0l-0.1-1
		C131.4,151.7,130.4,150.8,129.3,150.9C129.3,150.9,129.3,150.9,129.3,150.9z"/>
	<path d="M31.4,137.8c-0.4,0.5-0.6,1.2-0.6,1.8l2.6,35.8c0.1,1.3,1.2,2.3,2.5,2.3H36l81-5.8c1.4-0.1,2.4-1.3,2.3-2.7l-2.6-35.8
		c-0.1-1.4-1.3-2.4-2.7-2.3l-81,5.8C32.4,137,31.8,137.3,31.4,137.8z M112,136.3l2.2,30.8l-76,5.5l-2.3-30.8L112,136.3z"/>
	<path d="M150,173.6h0.3c2.2-0.1,3.9-2,3.7-4.3c0,0,0,0,0,0l-1-14.6c-0.1-2.2-2.1-3.9-4.3-3.7s-3.9,2.1-3.7,4.3l1,14.6
		C146.1,172,147.9,173.6,150,173.6z"/>
</g>
</svg>
